<svg width="16" height="16" viewBox="0 0 16 16" fill="none" xmlns="http://www.w3.org/2000/svg">
<path fill-rule="evenodd" clip-rule="evenodd" d="M5.33333 1H4V2.33333H2.66667C1.19391 2.33333 0 3.52724 0 5V13C0 14.4728 1.19391 15.6667 2.66667 15.6667H13.3333C14.8061 15.6667 16 14.4728 16 13V5C16 3.52724 14.8061 2.33333 13.3333 2.33333H12V1H10.6667V2.33333H5.33333V1ZM10.6667 2.33333V5H12V2.33333L13.3333 2.33334L13.3333 3.66667C14.0697 3.66667 14.6667 4.26362 14.6667 5V13C14.6667 13.7364 14.0697 14.3333 13.3333 14.3333H2.66667C1.93029 14.3333 1.33333 13.7364 1.33333 13V5C1.33333 4.26362 1.93029 3.66667 2.66667 3.66667V2.33334H4V5H5.33333V2.33334H6.66667V3.66667H9.33333V2.33334L10.6667 2.33333ZM2.66675 6.33333H5.33342V9H2.66675V6.33333ZM2.66667 13V10.3333H5.33333V13H2.66667ZM9.33333 6.33334H6.66667V9.00001H9.33333V6.33334ZM6.66667 10.3333H9.33333V13H6.66667V10.3333ZM13.3333 9.00001V6.33334H10.6667V9.00001H13.3333ZM10.6667 13V10.3333H13.3333V13H10.6667Z" fill="#A9A9A9"/>
</svg>
