<svg width="14" height="14" viewBox="0 0 14 14" fill="none" xmlns="http://www.w3.org/2000/svg">
<path fill-rule="evenodd" clip-rule="evenodd" d="M4.66667 1H3.5V2.16667H2.33333C1.04467 2.16667 0 3.21134 0 4.5V11.5C0 12.7887 1.04467 13.8333 2.33333 13.8333H11.6667C12.9553 13.8333 14 12.7887 14 11.5V4.5C14 3.21134 12.9553 2.16667 11.6667 2.16667H10.5V1H9.33333V2.16667H4.66667V1ZM9.33333 4.5V2.16671H8.16667V3.33333H5.83333V2.16671H4.66667V4.5H3.5V2.16671H2.33333V3.33333C1.689 3.33333 1.16667 3.85567 1.16667 4.5V11.5C1.16667 12.1443 1.689 12.6667 2.33333 12.6667H11.6667C12.311 12.6667 12.8333 12.1443 12.8333 11.5V4.5C12.8333 3.85567 12.311 3.33333 11.6667 3.33333L11.6667 2.16671H10.5V4.5H9.33333ZM2.33333 8V5.66667H4.66667V8H2.33333ZM2.33317 9.16671H4.6665V11.5H2.33317V9.16671ZM8.1665 5.66671H5.83317V8.00004H8.1665V5.66671ZM5.83317 9.16671H8.1665V11.5H5.83317V9.16671ZM11.6665 5.66671H9.33317V8.00004H11.6665V5.66671ZM9.33317 9.16671H11.6665V11.5H9.33317V9.16671Z" fill="#101010"/>
</svg>
